<mxfile host="app.diagrams.net" modified="2021-04-19T01:12:17.143Z" agent="5.0 (Windows NT 10.0; Win64; x64) AppleWebKit/537.36 (KHTML, like Gecko) Chrome/89.0.4389.114 Safari/537.36 Edg/89.0.774.76" etag="7eS41aGl_GAvclZwLhwo" version="14.5.8" type="github">
  <diagram id="YP0pBPj05E5QGNiLSJ7z" name="Page-1">
    <mxGraphModel dx="1038" dy="580" grid="1" gridSize="10" guides="1" tooltips="1" connect="1" arrows="1" fold="1" page="1" pageScale="1" pageWidth="827" pageHeight="1169" math="0" shadow="0">
      <root>
        <mxCell id="0" />
        <mxCell id="1" parent="0" />
        <mxCell id="T0PE1KU94PBCbyuOxOGF-1" value="Person" style="swimlane;fontStyle=1;align=center;verticalAlign=top;childLayout=stackLayout;horizontal=1;startSize=26;horizontalStack=0;resizeParent=1;resizeParentMax=0;resizeLast=0;collapsible=1;marginBottom=0;" parent="1" vertex="1">
          <mxGeometry x="300" y="30" width="160" height="160" as="geometry" />
        </mxCell>
        <mxCell id="T0PE1KU94PBCbyuOxOGF-2" value="String name;&#xa;String address;&#xa;String id;&#xa;String email;" style="text;strokeColor=none;fillColor=none;align=left;verticalAlign=top;spacingLeft=4;spacingRight=4;overflow=hidden;rotatable=0;points=[[0,0.5],[1,0.5]];portConstraint=eastwest;" parent="T0PE1KU94PBCbyuOxOGF-1" vertex="1">
          <mxGeometry y="26" width="160" height="84" as="geometry" />
        </mxCell>
        <mxCell id="T0PE1KU94PBCbyuOxOGF-3" value="" style="line;strokeWidth=1;fillColor=none;align=left;verticalAlign=middle;spacingTop=-1;spacingLeft=3;spacingRight=3;rotatable=0;labelPosition=right;points=[];portConstraint=eastwest;" parent="T0PE1KU94PBCbyuOxOGF-1" vertex="1">
          <mxGeometry y="110" width="160" height="8" as="geometry" />
        </mxCell>
        <mxCell id="T0PE1KU94PBCbyuOxOGF-4" value="+ input();&#xa;+ output();" style="text;strokeColor=none;fillColor=none;align=left;verticalAlign=top;spacingLeft=4;spacingRight=4;overflow=hidden;rotatable=0;points=[[0,0.5],[1,0.5]];portConstraint=eastwest;" parent="T0PE1KU94PBCbyuOxOGF-1" vertex="1">
          <mxGeometry y="118" width="160" height="42" as="geometry" />
        </mxCell>
        <mxCell id="T0PE1KU94PBCbyuOxOGF-5" value="Student" style="swimlane;fontStyle=1;align=center;verticalAlign=top;childLayout=stackLayout;horizontal=1;startSize=26;horizontalStack=0;resizeParent=1;resizeParentMax=0;resizeLast=0;collapsible=1;marginBottom=0;" parent="1" vertex="1">
          <mxGeometry x="40" y="290" width="160" height="130" as="geometry" />
        </mxCell>
        <mxCell id="T0PE1KU94PBCbyuOxOGF-6" value="float math;&#xa;float physics;&#xa;float chemistry;" style="text;strokeColor=none;fillColor=none;align=left;verticalAlign=top;spacingLeft=4;spacingRight=4;overflow=hidden;rotatable=0;points=[[0,0.5],[1,0.5]];portConstraint=eastwest;" parent="T0PE1KU94PBCbyuOxOGF-5" vertex="1">
          <mxGeometry y="26" width="160" height="54" as="geometry" />
        </mxCell>
        <mxCell id="T0PE1KU94PBCbyuOxOGF-7" value="" style="line;strokeWidth=1;fillColor=none;align=left;verticalAlign=middle;spacingTop=-1;spacingLeft=3;spacingRight=3;rotatable=0;labelPosition=right;points=[];portConstraint=eastwest;" parent="T0PE1KU94PBCbyuOxOGF-5" vertex="1">
          <mxGeometry y="80" width="160" height="8" as="geometry" />
        </mxCell>
        <mxCell id="T0PE1KU94PBCbyuOxOGF-8" value="+ input(): Override&#xa;+ output(): Override" style="text;strokeColor=none;fillColor=none;align=left;verticalAlign=top;spacingLeft=4;spacingRight=4;overflow=hidden;rotatable=0;points=[[0,0.5],[1,0.5]];portConstraint=eastwest;" parent="T0PE1KU94PBCbyuOxOGF-5" vertex="1">
          <mxGeometry y="88" width="160" height="42" as="geometry" />
        </mxCell>
        <mxCell id="T0PE1KU94PBCbyuOxOGF-9" value="Employee" style="swimlane;fontStyle=1;align=center;verticalAlign=top;childLayout=stackLayout;horizontal=1;startSize=26;horizontalStack=0;resizeParent=1;resizeParentMax=0;resizeLast=0;collapsible=1;marginBottom=0;" parent="1" vertex="1">
          <mxGeometry x="300" y="290" width="160" height="120" as="geometry" />
        </mxCell>
        <mxCell id="T0PE1KU94PBCbyuOxOGF-10" value="float workDay;&#xa;float dailySalary;&#xa;" style="text;strokeColor=none;fillColor=none;align=left;verticalAlign=top;spacingLeft=4;spacingRight=4;overflow=hidden;rotatable=0;points=[[0,0.5],[1,0.5]];portConstraint=eastwest;" parent="T0PE1KU94PBCbyuOxOGF-9" vertex="1">
          <mxGeometry y="26" width="160" height="44" as="geometry" />
        </mxCell>
        <mxCell id="T0PE1KU94PBCbyuOxOGF-11" value="" style="line;strokeWidth=1;fillColor=none;align=left;verticalAlign=middle;spacingTop=-1;spacingLeft=3;spacingRight=3;rotatable=0;labelPosition=right;points=[];portConstraint=eastwest;" parent="T0PE1KU94PBCbyuOxOGF-9" vertex="1">
          <mxGeometry y="70" width="160" height="8" as="geometry" />
        </mxCell>
        <mxCell id="T0PE1KU94PBCbyuOxOGF-12" value="+ input(): Override&#xa;+ output(): Override" style="text;strokeColor=none;fillColor=none;align=left;verticalAlign=top;spacingLeft=4;spacingRight=4;overflow=hidden;rotatable=0;points=[[0,0.5],[1,0.5]];portConstraint=eastwest;" parent="T0PE1KU94PBCbyuOxOGF-9" vertex="1">
          <mxGeometry y="78" width="160" height="42" as="geometry" />
        </mxCell>
        <mxCell id="T0PE1KU94PBCbyuOxOGF-13" value="Customer" style="swimlane;fontStyle=1;align=center;verticalAlign=top;childLayout=stackLayout;horizontal=1;startSize=26;horizontalStack=0;resizeParent=1;resizeParentMax=0;resizeLast=0;collapsible=1;marginBottom=0;" parent="1" vertex="1">
          <mxGeometry x="550" y="290" width="160" height="140" as="geometry" />
        </mxCell>
        <mxCell id="T0PE1KU94PBCbyuOxOGF-14" value="string company;&#xa;float transactionAmount;&#xa;String evaluation;" style="text;strokeColor=none;fillColor=none;align=left;verticalAlign=top;spacingLeft=4;spacingRight=4;overflow=hidden;rotatable=0;points=[[0,0.5],[1,0.5]];portConstraint=eastwest;" parent="T0PE1KU94PBCbyuOxOGF-13" vertex="1">
          <mxGeometry y="26" width="160" height="64" as="geometry" />
        </mxCell>
        <mxCell id="T0PE1KU94PBCbyuOxOGF-15" value="" style="line;strokeWidth=1;fillColor=none;align=left;verticalAlign=middle;spacingTop=-1;spacingLeft=3;spacingRight=3;rotatable=0;labelPosition=right;points=[];portConstraint=eastwest;" parent="T0PE1KU94PBCbyuOxOGF-13" vertex="1">
          <mxGeometry y="90" width="160" height="8" as="geometry" />
        </mxCell>
        <mxCell id="T0PE1KU94PBCbyuOxOGF-16" value="+ input(): Override&#xa;+ output(): Override" style="text;strokeColor=none;fillColor=none;align=left;verticalAlign=top;spacingLeft=4;spacingRight=4;overflow=hidden;rotatable=0;points=[[0,0.5],[1,0.5]];portConstraint=eastwest;" parent="T0PE1KU94PBCbyuOxOGF-13" vertex="1">
          <mxGeometry y="98" width="160" height="42" as="geometry" />
        </mxCell>
        <mxCell id="T0PE1KU94PBCbyuOxOGF-17" value="ListPerson" style="swimlane;fontStyle=1;align=center;verticalAlign=top;childLayout=stackLayout;horizontal=1;startSize=26;horizontalStack=0;resizeParent=1;resizeParentMax=0;resizeLast=0;collapsible=1;marginBottom=0;" parent="1" vertex="1">
          <mxGeometry x="560" y="30" width="180" height="160" as="geometry" />
        </mxCell>
        <mxCell id="T0PE1KU94PBCbyuOxOGF-18" value="ArrayList&lt;Person&gt;: listPerson;" style="text;strokeColor=none;fillColor=none;align=left;verticalAlign=top;spacingLeft=4;spacingRight=4;overflow=hidden;rotatable=0;points=[[0,0.5],[1,0.5]];portConstraint=eastwest;" parent="T0PE1KU94PBCbyuOxOGF-17" vertex="1">
          <mxGeometry y="26" width="180" height="34" as="geometry" />
        </mxCell>
        <mxCell id="T0PE1KU94PBCbyuOxOGF-19" value="" style="line;strokeWidth=1;fillColor=none;align=left;verticalAlign=middle;spacingTop=-1;spacingLeft=3;spacingRight=3;rotatable=0;labelPosition=right;points=[];portConstraint=eastwest;" parent="T0PE1KU94PBCbyuOxOGF-17" vertex="1">
          <mxGeometry y="60" width="180" height="8" as="geometry" />
        </mxCell>
        <mxCell id="T0PE1KU94PBCbyuOxOGF-20" value="+ input();&#xa;+ output();&#xa;+ add(Person);&#xa;+ delete(id);&#xa;+ sort();" style="text;strokeColor=none;fillColor=none;align=left;verticalAlign=top;spacingLeft=4;spacingRight=4;overflow=hidden;rotatable=0;points=[[0,0.5],[1,0.5]];portConstraint=eastwest;" parent="T0PE1KU94PBCbyuOxOGF-17" vertex="1">
          <mxGeometry y="68" width="180" height="92" as="geometry" />
        </mxCell>
        <mxCell id="T0PE1KU94PBCbyuOxOGF-21" value="Main" style="swimlane;fontStyle=1;align=center;verticalAlign=top;childLayout=stackLayout;horizontal=1;startSize=26;horizontalStack=0;resizeParent=1;resizeParentMax=0;resizeLast=0;collapsible=1;marginBottom=0;" parent="1" vertex="1">
          <mxGeometry x="300" y="475" width="160" height="110" as="geometry" />
        </mxCell>
        <mxCell id="T0PE1KU94PBCbyuOxOGF-23" value="" style="line;strokeWidth=1;fillColor=none;align=left;verticalAlign=middle;spacingTop=-1;spacingLeft=3;spacingRight=3;rotatable=0;labelPosition=right;points=[];portConstraint=eastwest;" parent="T0PE1KU94PBCbyuOxOGF-21" vertex="1">
          <mxGeometry y="26" width="160" height="34" as="geometry" />
        </mxCell>
        <mxCell id="T0PE1KU94PBCbyuOxOGF-24" value="+ printMenu();&#xa;+ doMenu();" style="text;strokeColor=none;fillColor=none;align=left;verticalAlign=top;spacingLeft=4;spacingRight=4;overflow=hidden;rotatable=0;points=[[0,0.5],[1,0.5]];portConstraint=eastwest;" parent="T0PE1KU94PBCbyuOxOGF-21" vertex="1">
          <mxGeometry y="60" width="160" height="50" as="geometry" />
        </mxCell>
        <mxCell id="T0PE1KU94PBCbyuOxOGF-25" value="Extends" style="endArrow=block;endSize=16;endFill=0;html=1;fontSize=11;exitX=0.5;exitY=0;exitDx=0;exitDy=0;entryX=0.278;entryY=1.1;entryDx=0;entryDy=0;entryPerimeter=0;" parent="1" source="T0PE1KU94PBCbyuOxOGF-5" target="T0PE1KU94PBCbyuOxOGF-4" edge="1">
          <mxGeometry width="160" relative="1" as="geometry">
            <mxPoint x="180" y="250" as="sourcePoint" />
            <mxPoint x="340" y="250" as="targetPoint" />
          </mxGeometry>
        </mxCell>
        <mxCell id="T0PE1KU94PBCbyuOxOGF-26" value="Extends" style="endArrow=block;endSize=16;endFill=0;html=1;fontSize=11;exitX=0.5;exitY=0;exitDx=0;exitDy=0;entryX=0.547;entryY=1.005;entryDx=0;entryDy=0;entryPerimeter=0;" parent="1" source="T0PE1KU94PBCbyuOxOGF-9" target="T0PE1KU94PBCbyuOxOGF-4" edge="1">
          <mxGeometry width="160" relative="1" as="geometry">
            <mxPoint x="380" y="280" as="sourcePoint" />
            <mxPoint x="376" y="192" as="targetPoint" />
          </mxGeometry>
        </mxCell>
        <mxCell id="T0PE1KU94PBCbyuOxOGF-27" value="Extends" style="endArrow=block;endSize=16;endFill=0;html=1;fontSize=11;exitX=0.5;exitY=0;exitDx=0;exitDy=0;entryX=0.778;entryY=1.119;entryDx=0;entryDy=0;entryPerimeter=0;" parent="1" source="T0PE1KU94PBCbyuOxOGF-13" target="T0PE1KU94PBCbyuOxOGF-4" edge="1">
          <mxGeometry width="160" relative="1" as="geometry">
            <mxPoint x="140" y="310" as="sourcePoint" />
            <mxPoint x="364.48" y="214.20000000000005" as="targetPoint" />
          </mxGeometry>
        </mxCell>
      </root>
    </mxGraphModel>
  </diagram>
</mxfile>
